<?xml version="1.0" standalone="no"?>
<!DOCTYPE svg PUBLIC "-//W3C//DTD SVG 20010904//EN"
 "http://www.w3.org/TR/2001/REC-SVG-20010904/DTD/svg10.dtd">
<svg version="1.0" xmlns="http://www.w3.org/2000/svg"
 width="4157.000000pt" height="1459.000000pt" viewBox="0 0 4157.000000 1459.000000"
 preserveAspectRatio="xMidYMid meet">
<metadata>
Created by potrace 1.16, written by Peter Selinger 2001-2019
</metadata>
<g transform="translate(0.000000,1459.000000) scale(0.100000,-0.100000)"
fill="#000000" stroke="none">
<path d="M113 14491 c-57 -56 -105 -111 -108 -123 -3 -13 -5 -2417 -3 -5343
l3 -5320 23 -65 c12 -36 34 -126 48 -200 14 -74 37 -161 50 -192 13 -32 24
-67 24 -80 0 -12 9 -40 20 -63 11 -23 27 -66 36 -96 8 -30 22 -75 29 -102 8
-26 21 -57 29 -69 9 -12 16 -31 16 -41 0 -11 11 -40 24 -66 13 -25 32 -66 43
-91 25 -56 79 -163 127 -253 20 -38 36 -74 36 -82 0 -7 6 -17 13 -23 7 -6 50
-73 96 -150 46 -76 107 -170 137 -208 29 -38 60 -82 69 -98 45 -78 268 -340
420 -491 310 -311 526 -488 810 -664 61 -38 135 -85 165 -104 65 -42 431 -227
448 -227 7 0 38 -13 69 -30 31 -16 65 -30 76 -30 11 0 28 -6 36 -14 17 -15
142 -62 201 -75 19 -4 49 -15 67 -24 18 -9 46 -17 63 -17 17 0 50 -9 73 -19
23 -11 96 -31 162 -46 66 -15 147 -34 180 -42 33 -8 116 -19 185 -24 73 -6
7902 -12 18848 -15 l18723 -5 67 62 c37 34 86 85 110 112 l43 50 -3 5331 -3
5331 -23 65 c-12 36 -34 126 -48 200 -14 74 -37 161 -50 192 -13 32 -24 67
-24 80 0 12 -9 40 -20 63 -11 23 -27 65 -35 94 -8 28 -21 74 -29 101 -8 28
-22 60 -30 72 -9 12 -16 31 -16 41 0 11 -11 40 -24 66 -21 41 -43 89 -75 161
-6 14 -38 76 -71 139 -33 62 -60 118 -60 124 0 6 -8 20 -18 31 -10 12 -47 68
-81 126 -61 104 -80 132 -183 280 -90 129 -238 310 -349 430 -124 132 -374
367 -534 500 -106 88 -359 263 -477 329 -31 18 -62 39 -68 46 -7 8 -20 15 -30
15 -10 0 -23 7 -31 16 -14 17 -371 194 -391 194 -7 0 -29 10 -48 21 -19 12
-57 30 -85 39 -27 10 -106 39 -175 65 -69 26 -143 51 -165 56 -22 6 -74 21
-115 34 -41 13 -120 33 -175 45 -55 12 -127 29 -160 37 -33 8 -116 19 -185 24
-73 6 -7974 12 -18850 15 l-18725 5 -102 -100z m12710 -4409 c3 -1170 9 -2135
12 -2144 4 -9 23 -18 43 -21 62 -10 1358 -20 1505 -12 l137 7 0 43 c0 57 -42
218 -86 335 -148 384 -395 705 -806 1047 l-86 72 83 188 c46 103 146 339 224
523 77 184 151 355 163 380 l23 45 425 -2 c234 -1 535 -7 670 -13 135 -6 373
-15 530 -19 308 -9 338 -14 464 -78 139 -70 312 -224 405 -361 59 -87 129
-236 141 -301 34 -180 -33 -689 -126 -967 -103 -308 -275 -672 -387 -822 -22
-29 -37 -55 -34 -58 10 -11 792 -27 938 -19 l146 7 6 581 c6 591 11 670 48
857 43 212 98 372 173 498 189 318 472 504 941 618 l110 27 648 4 647 4 0
-1273 c0 -700 3 -1283 6 -1296 l6 -22 367 2 366 3 6 1810 c3 996 7 1962 8
2148 l1 337 488 0 c289 0 493 -4 502 -10 24 -15 28 -386 28 -2650 0 -2121 -3
-2429 -26 -2452 -10 -10 -198 -14 -948 -16 l-935 -4 -41 -81 c-155 -309 -397
-516 -736 -627 -218 -71 -211 -71 -812 -82 -330 -7 -602 -7 -690 -2 l-145 9
-6 90 c-4 50 -7 226 -8 391 l-1 302 -903 3 c-868 4 -904 5 -932 23 -17 11 -71
59 -120 107 l-91 89 -64 -66 c-36 -36 -87 -82 -115 -102 l-49 -37 -376 -8
c-583 -13 -2708 -3 -2723 12 -8 8 -14 97 -20 309 -10 369 -4 4772 6 4790 6 9
118 12 501 12 l493 0 6 -2128z m10450 416 c11 -2645 9 -3395 -5 -3405 -17 -10
-979 -6 -990 5 -9 9 -12 5088 -3 5103 4 5 204 9 499 9 l493 0 6 -1712z
m-19862 1610 c78 -38 107 -59 165 -120 79 -83 133 -162 158 -229 15 -39 17
-73 14 -215 -3 -167 -4 -170 -35 -229 -96 -186 -247 -306 -441 -351 -137 -33
-303 2 -433 91 -168 115 -264 277 -276 465 -15 249 121 477 348 584 52 25 105
47 119 49 14 3 84 4 155 4 l130 -2 96 -47z m4796 -81 c27 -28 26 -845 -2 -884
-12 -16 -46 -17 -438 -17 -281 -1 -429 3 -436 9 -15 15 -25 460 -16 697 6 170
9 198 24 202 28 8 859 1 868 -7z m17703 3 c13 -8 15 -69 15 -449 0 -242 -4
-443 -8 -448 -12 -11 -473 -17 -694 -8 l-183 7 -7 27 c-10 34 -10 808 0 843 6
23 13 27 50 31 95 8 813 6 827 -3z m1285 -2 c18 -17 26 -209 23 -524 -3 -314
-5 -345 -21 -361 -16 -17 -48 -18 -442 -18 -394 0 -426 1 -442 18 -17 16 -18
49 -21 400 -4 427 0 477 38 489 31 9 856 6 865 -4z m4731 -12 c21 -29 21 -843
0 -872 -14 -18 -30 -19 -440 -19 -392 0 -427 1 -443 18 -16 16 -17 50 -18 436
0 333 3 421 13 434 19 22 57 24 490 23 368 -1 384 -2 398 -20z m2364 4 c6 -9
10 -194 10 -451 l0 -436 -242 -6 c-302 -9 -470 -9 -575 0 l-83 6 0 426 c0 234
3 436 6 448 3 12 13 24 23 27 9 2 204 4 434 3 359 -2 419 -4 427 -17z m1144
14 c39 -6 47 -11 54 -33 4 -14 7 -209 7 -433 0 -378 -1 -409 -18 -425 -16 -16
-46 -18 -315 -22 -163 -2 -357 0 -430 4 -132 7 -132 7 -140 34 -9 34 -9 808 1
843 5 21 14 28 40 31 55 7 751 7 801 1z m1638 -12 c15 -15 24 -647 11 -797
l-8 -90 -110 -9 c-60 -4 -260 -5 -442 -1 l-333 7 0 449 0 448 48 4 c26 2 221
4 434 3 303 -1 390 -4 400 -14z m1280 0 c19 -19 19 -865 0 -884 -19 -19 -865
-19 -884 0 -10 10 -14 108 -16 452 l-3 439 33 4 c18 3 218 4 445 3 323 -1 415
-4 425 -14z m-10930 -1524 c9 -18 13 -307 16 -1304 l4 -1281 97 -7 c125 -8
1295 -8 1393 0 l75 7 6 1290 c4 710 9 1292 11 1294 2 2 225 5 495 6 395 2 493
-1 500 -11 14 -24 21 -495 21 -1543 l0 -1036 98 -6 c120 -8 711 -7 807 2 l70
6 6 815 c3 448 7 1030 8 1293 l1 478 489 -3 c269 -2 492 -5 494 -8 3 -3 9
-582 14 -1287 4 -705 12 -1285 16 -1290 11 -10 1300 -8 1317 2 8 5 -5 25 -43
64 -243 251 -392 529 -442 826 -34 203 -17 501 41 703 33 115 117 286 194 394
77 109 230 257 335 327 165 108 438 216 629 247 109 18 1502 40 1681 27 l110
-8 6 -355 c4 -195 7 -776 8 -1292 l1 -936 83 -7 c96 -8 1373 -3 1381 6 3 3 9
585 13 1295 l8 1289 495 0 495 0 6 -120 c4 -66 7 -829 8 -1696 l1 -1577 -1367
-7 c-753 -4 -3431 -8 -5953 -9 -3599 -1 -4591 2 -4612 11 l-28 13 0 1038 c0
980 -4 1222 -20 1222 -33 0 -347 -222 -470 -333 -303 -271 -578 -688 -757
-1147 -72 -184 -99 -279 -153 -544 -22 -109 -47 -210 -55 -225 l-14 -28 -167
-6 c-203 -8 -568 -7 -684 1 l-85 7 2 97 c5 277 91 730 198 1038 130 374 310
706 581 1071 109 148 170 218 308 354 94 94 205 196 246 226 593 440 1160 622
1992 638 71 1 78 -1 90 -21z m-16314 -4 c2 -1 4 -699 5 -1551 2 -1438 1 -1557
-16 -1673 -84 -593 -289 -980 -639 -1211 -96 -63 -241 -139 -266 -139 -8 0
-45 -11 -83 -25 -116 -41 -235 -57 -449 -59 l-195 -1 -3 425 -2 426 122 27
c281 61 412 185 509 478 27 83 31 115 39 269 5 96 10 585 11 1085 1 501 5
1144 8 1430 l6 520 125 6 c117 5 821 0 828 -7z m-2233 -1001 c9 -1206 2 -2383
-15 -2393 -23 -14 -918 -18 -2855 -13 l-1990 5 -195 49 c-167 42 -214 58 -327
113 -184 90 -262 144 -384 266 -155 154 -248 308 -324 535 -87 261 -94 352
-95 1209 l0 569 483 -7 c265 -4 483 -8 483 -9 1 -1 7 -252 13 -557 12 -588 14
-615 66 -780 86 -271 274 -460 543 -544 l83 -26 996 0 c883 0 994 2 989 15 -3
8 -40 56 -83 105 -266 310 -402 618 -419 955 -9 175 16 360 77 560 149 486
612 850 1189 934 117 17 119 17 961 19 l797 2 7 -1007z m27088 -3000 c4 -153
7 -513 7 -800 0 -351 3 -524 10 -528 6 -4 45 24 86 62 254 230 405 319 661
390 87 23 121 27 293 31 329 7 473 -19 678 -122 187 -94 314 -221 412 -412 49
-96 104 -263 119 -362 23 -150 31 -482 31 -1338 l0 -881 -427 -6 c-236 -4
-477 -3 -538 1 l-110 7 -6 965 c-6 978 -8 1038 -45 1146 -61 180 -230 284
-460 284 -202 0 -393 -89 -506 -236 -60 -78 -135 -229 -153 -309 -28 -118 -36
-315 -43 -1082 -5 -419 -11 -766 -15 -769 -9 -9 -1043 -11 -1052 -2 -9 9 -12
4198 -3 4221 7 16 42 17 531 17 l524 0 6 -277z m-7262 140 c11 -13 14 -96 14
-444 0 -235 -4 -431 -8 -436 -5 -4 -204 -8 -444 -8 -420 0 -435 1 -449 20 -12
16 -14 88 -12 445 l3 425 305 5 c168 3 366 6 441 8 117 2 139 0 150 -15z
m1290 -58 c4 -38 7 -237 8 -441 1 -345 0 -372 -16 -380 -23 -11 -657 -18 -790
-9 l-103 7 0 444 0 444 298 3 c163 1 365 2 447 2 l150 0 6 -70z m-26091 -442
c0 -533 10 -993 21 -993 9 0 197 168 579 515 151 138 334 302 405 366 72 64
245 220 385 348 l255 232 652 -3 c358 -2 655 -7 660 -11 4 -5 -15 -30 -42 -55
-91 -85 -781 -710 -1300 -1177 -576 -518 -757 -685 -753 -696 2 -4 130 -121
284 -261 155 -139 398 -359 540 -489 143 -130 408 -371 589 -536 1014 -922
919 -833 906 -846 -8 -8 -231 -12 -704 -15 l-693 -4 -40 33 c-83 71 -947 854
-1339 1214 -174 159 -376 335 -385 335 -4 0 -9 -346 -12 -770 -3 -691 -5 -771
-20 -786 -14 -14 -61 -17 -364 -21 -192 -2 -441 0 -554 4 l-205 8 -7 130 c-9
173 -11 3531 -2 3757 l7 177 26 4 c14 2 270 5 569 6 l542 1 0 -467z m23050 67
c0 -220 -1 -401 -2 -402 -2 -1 -328 -5 -725 -8 -397 -3 -725 -9 -730 -13 -4
-5 -11 -729 -14 -1610 -3 -881 -9 -1612 -13 -1624 -7 -20 -17 -21 -154 -28
-205 -11 -962 1 -976 15 -8 8 -12 490 -16 1625 -3 887 -8 1617 -13 1621 -4 4
-329 10 -721 13 -393 3 -718 10 -723 14 -9 10 -17 706 -8 754 l6 32 112 4 c62
1 982 4 2045 5 l1932 2 0 -400z m-12403 -565 c565 -74 903 -264 1085 -611 53
-102 111 -275 128 -384 9 -54 14 -360 17 -1080 4 -879 3 -1008 -10 -1025 -15
-20 -27 -20 -509 -20 -271 0 -505 3 -520 8 l-28 7 -1 138 c-1 160 -10 244 -25
249 -6 2 -30 -21 -53 -52 -23 -30 -76 -85 -119 -121 -167 -142 -304 -215 -525
-276 -108 -30 -121 -31 -352 -35 -281 -5 -359 4 -533 65 -285 101 -487 277
-602 526 -55 119 -71 192 -77 352 -9 226 19 376 97 539 115 239 347 399 710
489 256 64 292 67 860 76 289 4 547 11 574 15 l49 8 -7 85 c-10 119 -37 185
-105 253 -138 138 -367 187 -821 176 -355 -9 -568 -53 -923 -194 -77 -30 -142
-52 -145 -48 -4 4 -8 159 -10 344 -4 369 0 404 50 416 86 19 484 78 638 94
251 25 977 29 1157 6z m4480 -8 c17 -16 18 -51 21 -462 l3 -445 -21 0 c-11 0
-42 11 -68 24 -244 124 -684 126 -915 4 -95 -50 -242 -201 -294 -303 -46 -90
-77 -186 -94 -290 -7 -45 -14 -349 -18 -836 -5 -628 -8 -769 -20 -782 -12 -15
-62 -17 -526 -17 -479 0 -513 1 -521 17 -5 10 -10 694 -12 1521 l-3 1502 535
0 534 0 4 -209 c1 -115 6 -213 10 -217 4 -4 55 43 114 104 200 211 386 325
634 387 90 23 109 24 357 22 237 -2 264 -4 280 -20z m2421 -6 c322 -70 633
-231 831 -431 213 -214 344 -459 405 -762 35 -172 48 -317 44 -493 l-3 -150
-30 -6 c-16 -4 -547 -7 -1180 -8 -632 -1 -1181 -4 -1219 -8 l-68 -6 5 -51 c3
-28 15 -80 27 -116 72 -214 173 -329 375 -426 249 -121 523 -134 1035 -49 80
13 165 31 189 40 25 8 72 22 105 31 95 24 372 131 467 180 95 49 114 53 129
25 11 -22 13 -659 1 -700 -12 -43 -54 -62 -238 -106 -210 -51 -315 -72 -593
-117 l-205 -33 -425 0 -425 1 -181 36 c-265 54 -461 126 -639 233 -357 215
-584 535 -672 945 -26 124 -27 655 0 778 78 363 275 674 557 882 131 97 373
210 560 264 135 38 203 51 370 70 19 2 181 3 360 1 279 -4 338 -7 418 -24z
m12212 0 c106 -20 246 -54 410 -98 36 -10 82 -29 103 -41 l37 -24 -1 -301 c-1
-166 -4 -340 -7 -387 -7 -82 -8 -85 -31 -82 -13 1 -64 25 -113 52 -100 57
-238 110 -378 145 -156 39 -247 48 -428 42 -138 -4 -184 -9 -267 -31 -296 -79
-484 -252 -576 -531 l-33 -100 0 -215 c1 -188 3 -225 22 -294 60 -218 197
-390 391 -490 171 -88 353 -123 584 -112 273 12 513 81 717 204 52 32 88 48
94 42 5 -5 11 -168 13 -372 5 -448 14 -418 -132 -466 -101 -32 -346 -90 -485
-114 -52 -9 -186 -13 -430 -13 -386 1 -415 3 -665 66 -396 99 -704 277 -901
523 -176 219 -284 461 -314 706 -15 127 -13 557 4 662 19 115 86 310 147 428
64 123 132 214 239 320 220 219 484 360 833 445 251 61 293 64 692 61 320 -3
373 -6 475 -25z m-25673 -101 c12 -25 54 -166 92 -315 38 -148 95 -361 125
-472 31 -111 90 -332 131 -490 125 -481 185 -696 197 -710 16 -20 24 -7 42 79
17 76 128 493 345 1295 61 227 121 452 132 500 11 49 25 103 30 121 l11 32
451 -2 452 -3 37 -130 c20 -71 87 -317 148 -545 62 -228 146 -539 187 -690 41
-151 95 -351 119 -444 57 -217 72 -239 94 -128 6 31 29 118 50 192 38 134 182
661 344 1260 77 288 103 385 120 463 l6 27 520 0 c503 0 520 -1 520 -19 0 -17
-133 -489 -355 -1256 -48 -165 -104 -361 -125 -435 -21 -74 -74 -261 -119
-415 -46 -154 -121 -413 -167 -575 -66 -228 -91 -301 -110 -320 l-24 -25 -554
0 c-453 0 -556 2 -569 14 -24 19 -49 105 -222 750 -348 1302 -341 1277 -368
1268 -6 -2 -17 -35 -23 -73 -14 -79 -15 -82 -203 -789 -148 -554 -276 -1035
-292 -1096 -5 -20 -18 -44 -30 -55 -20 -18 -45 -19 -503 -22 -465 -4 -628 1
-655 17 -11 7 -201 643 -296 995 -20 72 -63 222 -96 335 -34 113 -79 267 -101
341 -22 74 -102 356 -179 625 -77 270 -153 533 -169 586 -26 84 -36 135 -27
141 7 5 456 14 712 14 l300 -1 22 -45z m21248 -61 c387 -48 732 -207 975 -448
213 -212 320 -416 379 -723 25 -127 42 -387 33 -477 -7 -63 -8 -65 -41 -74
-19 -4 -579 -11 -1245 -15 l-1211 -7 -3 -27 c-5 -39 44 -212 75 -269 38 -72
111 -157 177 -210 162 -131 367 -189 666 -189 230 0 454 30 718 95 209 52 457
143 601 221 99 55 95 68 99 -326 3 -382 11 -353 -106 -389 -113 -34 -346 -88
-477 -111 -385 -65 -449 -72 -755 -77 -390 -7 -589 6 -797 51 -295 63 -498
146 -702 286 -281 192 -466 469 -547 815 -27 115 -28 599 -1 722 40 186 117
364 219 508 78 110 239 264 358 344 227 152 541 261 865 300 50 6 104 13 120
15 51 7 515 -5 600 -15z"/>
<path d="M14750 9685 c0 -3 36 -49 81 -103 211 -254 408 -620 494 -917 14 -49
30 -94 35 -99 18 -18 72 55 130 176 87 180 103 248 104 443 0 105 -4 179 -13
215 -41 165 -131 239 -331 276 -72 13 -500 21 -500 9z"/>
<path d="M18542 9599 c-124 -15 -208 -65 -255 -154 -30 -58 -35 -242 -36
-1357 l-1 -938 103 0 c170 0 249 21 315 84 43 39 58 69 66 129 12 80 9 2189
-3 2220 -10 25 -15 27 -63 26 -29 -1 -86 -5 -126 -10z"/>
<path d="M3045 12066 c-133 -43 -251 -127 -310 -221 -132 -210 -119 -429 36
-615 63 -76 121 -116 232 -157 185 -69 364 -24 518 130 147 147 192 330 128
521 -45 134 -193 288 -304 317 -16 4 -48 14 -70 23 -49 19 -175 20 -230 2z
m286 -197 c104 -82 105 -207 5 -284 -34 -26 -36 -29 -21 -49 8 -12 33 -51 55
-88 23 -36 62 -87 88 -112 25 -25 43 -49 39 -52 -4 -4 -42 -9 -85 -12 l-78 -4
-55 97 c-30 53 -69 112 -87 131 -30 31 -39 34 -87 34 l-55 0 0 -89 0 -89 37
-29 c21 -18 33 -34 29 -41 -10 -16 -232 -16 -242 -1 -4 7 9 25 31 44 l38 32
-6 234 c-7 245 -5 236 -53 265 -11 6 -15 17 -11 27 6 15 28 17 213 17 l206 0
39 -31z"/>
<path d="M3058 11834 c-5 -4 -8 -54 -8 -110 0 -128 4 -134 100 -134 63 0 71 2
99 30 36 36 48 88 32 139 -18 62 -41 76 -135 79 -44 2 -84 0 -88 -4z"/>
<path d="M34437 9589 c-294 -31 -484 -171 -543 -400 -28 -107 -2 -224 91 -416
124 -255 328 -486 576 -651 79 -53 288 -172 301 -172 5 0 7 370 6 823 l-3 822
-175 1 c-96 1 -210 -2 -253 -7z"/>
<path d="M7435 9589 c-98 -10 -242 -51 -309 -87 -120 -64 -208 -187 -241 -338
-15 -64 -15 -77 -1 -131 33 -125 105 -288 183 -410 94 -149 269 -339 408 -445
65 -48 358 -228 374 -228 5 0 12 8 17 18 11 25 16 900 7 1292 l-8 335 -175 1
c-96 1 -211 -2 -255 -7z"/>
<path d="M13930 3883 c-319 -56 -453 -194 -437 -450 6 -96 28 -150 92 -221
116 -129 367 -187 579 -132 224 57 428 240 504 452 22 63 26 94 30 221 l4 147
-343 -1 c-256 -1 -366 -5 -429 -16z"/>
<path d="M20762 5000 c-159 -43 -302 -142 -385 -268 -47 -70 -134 -275 -139
-327 l-3 -30 130 -6 c224 -11 1201 -10 1231 1 26 10 27 12 21 75 -8 82 -58
234 -97 290 -16 23 -60 73 -97 110 -139 137 -213 166 -438 171 -126 3 -162 1
-223 -16z"/>
<path d="M28690 4875 c-162 -34 -278 -93 -376 -191 -58 -57 -82 -91 -124 -176
-33 -67 -53 -120 -54 -144 l-1 -39 75 -6 c41 -4 316 -6 610 -6 294 0 569 2
610 6 l75 6 -2 59 c-2 60 -22 134 -54 198 -28 55 -135 166 -203 210 -99 64
-198 90 -356 94 -90 2 -157 -1 -200 -11z"/>
</g>
</svg>
